# xmcd
#
# Track frame offsets: 
#        150
#        10445
#        21753
#        35199
#        46055
#        57657
#        69756
#        80428
#        91835
#        104723
#        114076
#        123431
#        135585
#        146481
#        156801
#        168948
#        179732
#        189080
#        199937
#        210559
#        221770
#        233845
#        245593
#        257964
#
# Disc length: 3601 seconds
#
# Revision: 2
# Processed by: cddbd v1.5.2PL0 Copyright (c) Steve Scherf et al.
# Submitted via: ExactAudioCopy v1.3
#
DISCID=580e0f18
DTITLE=Various Artist - Jon Savage's 1965 The Year The Sixties Ignite
DTITLE=d [CD1]
DYEAR=2018
DGENRE=
TTITLE0=Unit Four Plus Two - Concrete And Clay
TTITLE1=Thee Midniters - Land Of A Thousand Dances (Part 1)
TTITLE2=Jr. Walker and The All-Stars - Shotgun
TTITLE3=Marianne Faithfull - Come And Stay With Me
TTITLE4=The Poets - That's The Way It's Got To Be
TTITLE5=Tony Jackson with The Vibrations - Fortune Teller
TTITLE6=Alvin Cash and The Crawlers - Twine Time
TTITLE7=Del Shannon - Stranger In Town
TTITLE8=Martha and The Vandellas - Nowhere To Run
TTITLE9=Dixie Cups - Iko Iko
TTITLE10=Booker T and The MG's - Boot-Leg
TTITLE11=The Birds - Leaving Here
TTITLE12=The Hollies - I'm Alive
TTITLE13=Vashti - Some Things Just Stick In Your Mind
TTITLE14=The Who - Anyway Anyhow Anywhere
TTITLE15=The Anglos - Incense
TTITLE16=Everly Brothers - The Price Of Love
TTITLE17=The Sonics - Boss Hoss
TTITLE18=The Chiffons - Nobody Knows What's Goin' On (In My Mind But M
TTITLE18=e)
TTITLE19=The Yardbirds - Heart Full Of Soul
TTITLE20=Edwin Starr - Agent Double-O-Soul
TTITLE21=Wilson Pickett - In The Midnight Hour
TTITLE22=The Leaves - Too Many People
TTITLE23=The Kinks - See My Friends
EXTD=
EXTT0=
EXTT1=
EXTT2=
EXTT3=
EXTT4=
EXTT5=
EXTT6=
EXTT7=
EXTT8=
EXTT9=
EXTT10=
EXTT11=
EXTT12=
EXTT13=
EXTT14=
EXTT15=
EXTT16=
EXTT17=
EXTT18=
EXTT19=
EXTT20=
EXTT21=
EXTT22=
EXTT23=
PLAYORDER=
